<?xml version="1.0" standalone="no"?><!DOCTYPE svg PUBLIC "-//W3C//DTD SVG 1.1//EN" "http://www.w3.org/Graphics/SVG/1.1/DTD/svg11.dtd"><svg class="icon" width="200px" height="200.00px" viewBox="0 0 1024 1024" version="1.1" xmlns="http://www.w3.org/2000/svg"><path d="M645.6 779.1c0-73.6-59.9-133.6-133.6-133.6s-133.6 59.9-133.6 133.6 60 133.6 133.6 133.6 133.6-59.9 133.6-133.6z m-222.6 0c0-49.1 39.9-89 89-89s89 39.9 89 89-39.9 89-89 89-89-39.9-89-89zM779.1 645.6c73.6 0 133.6-59.9 133.6-133.6s-59.9-133.6-133.6-133.6-133.5 60-133.5 133.6 59.9 133.6 133.5 133.6z m0-222.6c49.1 0 89 39.9 89 89s-39.9 89-89 89-89-39.9-89-89 39.9-89 89-89zM244.9 378.4c-73.6 0-133.6 59.9-133.6 133.6s59.9 133.6 133.6 133.6 133.5-60 133.5-133.6-59.9-133.6-133.5-133.6z m0 222.6c-49.1 0-89-39.9-89-89s39.9-89 89-89 89 39.9 89 89-39.9 89-89 89zM512 378.4c73.6 0 133.6-59.9 133.6-133.6s-60-133.5-133.6-133.5-133.6 59.9-133.6 133.6 60 133.5 133.6 133.5z m0-222.6c49.1 0 89 39.9 89 89s-39.9 89-89 89-89-39.9-89-89 39.9-89 89-89z" fill="#8a8a8a" /><path d="M1001.7 979.5h-281C899.3 899.4 1024 720 1024 512 1024 229.7 794.3 0 512 0S0 229.7 0 512s229.7 512 512 512h489.7c12.3 0 22.3-10 22.3-22.3s-10-22.2-22.3-22.2zM44.5 512C44.5 254.2 254.2 44.5 512 44.5S979.5 254.2 979.5 512 769.8 979.5 512 979.5 44.5 769.8 44.5 512z" fill="#8a8a8a" /></svg>