<?xml version="1.0" standalone="no"?><!DOCTYPE svg PUBLIC "-//W3C//DTD SVG 1.1//EN" "http://www.w3.org/Graphics/SVG/1.1/DTD/svg11.dtd"><svg class="icon" width="200px" height="200.00px" viewBox="0 0 1024 1024" version="1.1" xmlns="http://www.w3.org/2000/svg"><path d="M510.561441 109.071432c38.738701 0 75.158302 15.085926 102.550306 42.47793s42.47793 63.811605 42.477931 102.550307v255.971331c0 38.738701-15.085926 75.158302-42.477931 102.550306s-63.812629 42.47793-102.55133 42.477931c-38.738701 0-75.158302-15.085926-102.550306-42.477931s-42.47793-63.812629-42.477931-102.550306v-255.971331c0-38.738701 15.085926-75.158302 42.477931-102.550307 27.392004-27.393028 63.812629-42.47793 102.55133-42.47793m0-46.438319c-105.744829 0-191.466556 85.722751-191.466556 191.466556v255.971331c0 105.743805 85.722751 191.466556 191.466556 191.466556s191.466556-85.722751 191.466556-191.466556v-255.971331c0-105.743805-85.722751-191.466556-191.466556-191.466556z" fill="#707070" /><path d="M866.457837 484.473867h-0.07372c-11.400963 0-21.026509 8.305758-22.892028 19.553138a333.723135 333.723135 0 0 1-21.916265 75.541235c-16.99752 40.185451-41.340394 76.286624-72.351833 107.298063-31.012463 31.012463-67.112611 55.355336-107.299087 72.351833-41.581007 17.587278-85.778041 26.504296-131.363463 26.504295-45.585422 0-89.782456-8.917017-131.363463-26.504295-40.185451-16.99752-76.286624-41.340394-107.298063-72.351833-31.012463-31.012463-55.355336-67.112611-72.351832-107.298063a333.669893 333.669893 0 0 1-21.916266-75.541235c-1.864495-11.24738-11.490041-19.553138-22.892028-19.553138h-0.07372c-14.323132 0-25.209081 12.862047-22.866431 26.992689 27.652071 166.802182 162.823364 297.269746 331.910858 317.840626 14.498216 1.764154 25.340138 14.18286 25.340138 28.787559v26.000544c0 16.028925-12.994129 29.023053-29.023053 29.023054H279.003632c-12.82314 0-23.218648 10.395508-23.218648 23.218647s10.395508 23.218648 23.218648 23.218648h466.529252c12.82314 0 23.218648-10.395508 23.218648-23.218648s-10.395508-23.218648-23.218648-23.218647h-181.022925c-16.028925 0-29.023053-12.994129-29.023054-29.023054v-26.422384c0-14.512551 10.707793-26.884157 25.099525-28.756844 167.60798-21.808757 301.263922-151.697826 328.739885-317.460764 2.340602-14.124498-8.550466-26.981426-22.868478-26.981426z" fill="#707070" /></svg>